<svg width="30" height="30" viewBox="0 0 36 36" fill="none" xmlns="http://www.w3.org/2000/svg">
<style>
.mini_header_search__form_button__img{
  stroke:black;
}
</style>
<g clip-path="url(#clip0_3512_587)">
<path id="path1" class="mini_header_search__form_button__img" d="M26.081 26.081L21.961 21.961M16.467 23.334C17.3688 23.334 18.2617 23.1564 19.0949 22.8113C19.928 22.4662 20.685 21.9603 21.3227 21.3227C21.9604 20.685 22.4662 19.928 22.8113 19.0949C23.1564 18.2617 23.334 17.3688 23.334 16.467C23.334 15.5652 23.1564 14.6722 22.8113 13.8391C22.4662 13.0059 21.9604 12.2489 21.3227 11.6113C20.685 10.9736 19.928 10.4678 19.0949 10.1227C18.2617 9.77759 17.3688 9.59998 16.467 9.59998C14.6458 9.59998 12.8991 10.3235 11.6113 11.6113C10.3235 12.8991 9.60001 14.6457 9.60001 16.467C9.60001 18.2882 10.3235 20.0349 11.6113 21.3227C12.8991 22.6105 14.6458 23.334 16.467 23.334V23.334Z" stroke="rgb(161, 95, 4)" stroke-width="1.7" stroke-linecap="round"/>
</g>
<defs>
<clipPath id="clip0_3512_587">
<rect width="36" height="36" fill="white"/>
</clipPath>
</defs>
</svg>
