<svg width="82" height="42" viewBox="0 0 82 42" fill="none" xmlns="http://www.w3.org/2000/svg">
<path d="M62.4998 0.965008C63.5258 0.408008 64.9658 0.247008 65.8558 1.07201C66.7458 1.89701 66.5318 3.12001 65.8558 5.04501C65.8558 5.04501 64.3508 9.11101 62.8008 13.307L62.4028 14.387C60.9888 18.217 59.6408 21.874 59.4758 22.35C57.9778 26.595 61.4428 26.472 63.4998 22.198C64.6588 19.804 66.1437 15.841 66.1437 15.841C66.6677 14.278 66.8257 13.337 66.5027 13.013C66.3957 12.9 66.5477 12.761 66.6827 12.69C68.9517 11.541 71.3127 12.618 70.0187 16L69.9647 16.138C69.5777 17.116 67.2848 22.871 67.2848 22.871C66.6087 24.531 66.6898 26.107 67.7028 26.107C68.3887 26.103 69.1628 25.722 70.0068 25.019C71.8248 23.515 73.2288 20.707 73.7337 19.565C73.9638 19.057 74.8207 17.145 75.4997 15.204C75.7357 14.539 75.8687 13.844 75.8947 13.139C75.8773 13.0519 75.8865 12.9615 75.9211 12.8796C75.9557 12.7978 76.0141 12.7282 76.0887 12.68C76.6029 12.4061 77.1762 12.262 77.7588 12.26C78.0411 12.2547 78.3207 12.3158 78.5751 12.4382C78.8296 12.5607 79.0517 12.7411 79.2237 12.965C79.6667 13.563 79.7897 14.544 79.3268 15.773C79.2067 16.093 75.5518 25.731 75.5518 25.731V25.757C77.5928 24.534 79.4217 24.444 80.5047 24.903L80.5017 24.89C81.9967 25.537 82.4918 27.33 81.4398 28.449C81.3368 28.559 81.0778 28.533 81.0778 28.359C80.9837 27.106 78.5608 24.864 74.9688 27.284L74.8237 27.669L73.7557 30.477C71.1357 37.495 68.3528 42.613 64.3408 41.477C61.6528 40.717 61.9638 36.87 64.8558 33.687C66.8584 31.5511 69.0286 29.5788 71.3457 27.789C71.4137 27.601 71.4757 27.439 71.5337 27.278C71.8117 26.498 72.0247 25.844 72.3257 25.013L72.4847 24.495C72.3067 24.695 71.9867 25.068 71.7728 25.307C71.0608 26.107 69.2787 28.064 66.4437 27.514L66.2097 27.462C64.1597 26.954 63.6018 25.476 63.5548 24.185C61.4128 26.841 59.2038 27.611 57.7478 27.575C55.7998 27.527 54.3698 26.061 55.3208 23.285C56.3787 20.179 60.8208 7.95301 62.1158 4.28501C62.6008 2.70501 62.7817 1.70501 62.2998 1.31101C62.1768 1.20801 62.3518 1.04601 62.4998 0.965008ZM70.8637 29.743C69.7607 30.623 65.3377 34.273 64.1117 37.184C63.6067 38.381 63.7357 39.333 64.5997 39.417C66.5597 39.611 68.6117 35.599 70.8278 29.905L70.8637 29.743ZM16.0278 5.35201C15.9408 5.68401 14.7087 9.21201 13.3267 13.101L13.1178 13.687L12.9078 14.276L12.6927 14.88C17.3838 13.757 25.7568 8.31001 26.7278 4.79501C26.8478 4.63401 27.0178 4.57501 27.2938 4.76001C27.7888 5.09001 27.9797 5.91501 27.7887 6.67801C27.0247 9.71601 21.3727 14.019 16.4097 16.232C17.0217 17.869 19.0917 22.499 20.6157 25.343C22.2787 28.462 24.0358 29.918 26.7628 30.08C28.2228 30.165 29.7768 29.633 30.6558 28.86L30.8038 28.72L30.7908 28.75C30.9848 28.546 31.3018 28.827 31.1567 29.073C30.6007 29.9022 29.8612 30.5921 28.9954 31.0893C28.1297 31.5865 27.1611 31.8776 26.1648 31.94C19.8198 32.367 17.3908 28.07 12.8608 17.446C12.4948 17.572 12.0518 17.734 11.6058 17.896C11.5308 18.083 9.53575 23.538 9.47575 23.719C8.53175 26.589 8.47075 28.161 9.11775 28.614C9.26275 28.704 9.19175 28.947 8.93975 29.028C6.41275 29.824 4.08675 28.332 5.38075 24.586C6.54175 21.27 11.0708 8.40601 12.2948 4.96001C12.7218 3.66601 12.4918 2.83501 11.8028 2.65401C8.50575 1.78001 0.876751 8.74901 1.97075 15.184C2.16075 16.304 2.95075 16.931 3.34875 16.847C3.37043 16.8427 3.39286 16.8438 3.41399 16.8503C3.43513 16.8568 3.45431 16.8685 3.4698 16.8843C3.48528 16.9001 3.49659 16.9195 3.50269 16.9407C3.5088 16.962 3.5095 16.9844 3.50475 17.006C3.39392 17.3856 3.13845 17.7064 2.79336 17.8994C2.44827 18.0925 2.04118 18.1422 1.65975 18.038C0.489751 17.782 0.106751 16.527 0.0427506 15.88C-0.601249 9.22001 6.14775 1.23001 12.3888 0.580008C14.7668 0.330008 16.9977 1.54001 16.0278 5.35201ZM40.0678 15.265L40.0078 15.472L37.1778 23.632C36.8738 24.482 37.0778 25.369 37.6788 25.534C39.4358 26.016 41.7068 23.389 42.8098 20.801C43.34 19.5445 43.8322 18.2722 44.2858 16.986C44.8678 15.343 45.3918 13.803 45.0688 13.078C44.9938 12.91 45.1138 12.822 45.2918 12.728C45.7968 12.473 47.5177 11.903 48.4328 12.796C49.1278 13.47 49.0418 14.567 48.4028 16.233L48.3068 16.475L48.5268 16.202C51.2298 12.902 53.3188 11.91 55.0898 12.605L55.2368 12.667C57.6178 13.741 56.3828 17.882 53.1208 18.147C52.9207 18.164 52.7648 18.021 52.9628 17.74C53.3578 17.135 53.3188 15.831 52.1668 15.718C51.0148 15.605 49.3368 16.925 48.1288 18.562C47.0448 20.012 45.9288 22.473 44.8068 25.835C44.5348 26.653 44.6637 26.847 44.6968 26.902C44.7045 26.9165 44.7085 26.9326 44.7085 26.949C44.7085 26.9654 44.7045 26.9815 44.6968 26.996C44.5537 27.268 43.7318 27.592 42.9368 27.592C41.3118 27.585 40.6458 26.647 40.9698 25.155C39.1218 26.919 37.2588 27.769 35.6148 27.621C35.2531 27.5896 34.9024 27.4805 34.5867 27.3012C34.271 27.1219 33.9977 26.8766 33.7855 26.5821C33.5732 26.2875 33.427 25.9506 33.3568 25.5944C33.2866 25.2382 33.2941 24.8711 33.3788 24.518C31.9528 26.327 29.8368 27.786 27.6817 27.585C25.5267 27.385 24.1817 25.919 24.8797 22.797C25.4697 20.199 28.2192 13.687 31.4998 11.5C32.9998 10.5 34.6654 10.678 34.9998 10.5C36.4998 11 36.7229 11.4523 36.2068 12.9468C33.9998 13 32.4998 14.5 31.1567 16.202C29.2554 18.1878 28.1556 21.5192 27.9998 22C27.2628 24.287 28.3647 25.709 29.4097 25.766C30.4548 25.826 31.8398 24.806 32.8298 23.263C34.5898 20.739 35.4108 17.578 36.2068 15.381C36.4108 14.821 36.9998 13.5 36.2068 12.9468C35.9897 13.0425 34.7918 10.614 34.9998 10.5C36.9998 10 40.9508 12.017 40.0678 15.265Z" fill="#5F0080"/>
</svg>
