<svg width="103" height="32" viewBox="0 0 103 32" fill="none" xmlns="http://www.w3.org/2000/svg">
<g clip-path="url(#clip0_630_2037)">
<g opacity="0.5">
<path d="M21.4051 19.7604V24.7033H19.0041V11.4528H21.388V12.7673C22.0185 11.8383 23.088 11.2601 24.3672 11.2601C26.7511 11.2601 28.9235 13.1704 28.9235 16.1871C28.9235 19.2038 26.7153 21.1124 24.3843 21.1124C23.1056 21.1101 22.0362 20.6371 21.4051 19.7604ZM26.5055 16.1678C26.5055 14.6776 25.3491 13.5036 23.8942 13.5036C22.4046 13.5036 21.2652 14.6975 21.2652 16.1678C21.2652 17.638 22.4023 18.8314 23.8942 18.8314C25.3491 18.8314 26.5055 17.6574 26.5055 16.1678Z" fill="black"/>
<path d="M50.8693 11.4528H53.2857V12.5746C53.8639 11.7524 54.7752 11.2601 55.9146 11.2601C57.336 11.2601 58.2985 11.8383 58.8068 12.8548C59.4026 11.8735 60.4715 11.2629 61.7684 11.2629C64.1699 11.2629 65.3792 12.7349 65.3792 15.1012V20.9174H62.8901V15.448C62.8901 14.1682 62.3642 13.3796 61.1378 13.3796C60.0508 13.3796 59.3321 14.1187 59.3321 15.6055V20.9174H56.8612V15.3786C56.8612 14.117 56.3353 13.3808 55.1607 13.3808C54.0236 13.3808 53.3033 14.1346 53.3033 15.6595V20.9174H50.8693V11.4528Z" fill="black"/>
<path d="M71.5132 11.276C69.4943 11.276 67.8256 12.3977 67.0393 14.0437C66.7167 14.7231 66.5506 15.4662 66.5532 16.2184C66.5532 18.9701 68.5158 21.1261 71.5655 21.1261C73.5611 21.1261 74.8631 20.3386 75.804 19.1043L73.826 17.9621C73.349 18.6262 72.6321 19.0423 71.6008 19.0423C70.1987 19.0423 69.1992 18.2708 68.8842 17.0439H76.3402C76.3811 16.7712 76.4018 16.4958 76.4021 16.2201V16.1302C76.4033 13.3267 74.3502 11.276 71.5132 11.276ZM68.9547 15.1495C69.3402 14.0454 70.2868 13.3267 71.5132 13.3267C72.7748 13.3267 73.6862 13.9754 74.0017 15.1495H68.9547Z" fill="black"/>
<path d="M77.6103 11.4528H80.0289V12.6468C80.6424 11.7883 81.6208 11.2623 82.7983 11.2623C85.0418 11.2623 86.4614 12.7343 86.4614 15.2058V20.9174H83.99V15.5731C83.99 14.2239 83.3412 13.3825 82.062 13.3825C80.9249 13.3825 80.0465 14.2239 80.0465 15.6959V20.9174H77.6103V11.4528Z" fill="black"/>
<path d="M87.1044 11.4528H88.8567V9.40203L91.2406 8V11.4528H93.7291V13.5911H91.2406V17.4822C91.2406 18.4812 91.6613 18.8314 92.2748 18.8314C92.6074 18.8314 92.8706 18.7262 93.1509 18.4812L94.255 20.3739C93.6416 20.8287 92.8706 21.0925 91.9939 21.0925C90.0137 21.0925 88.8567 20.1459 88.8567 17.5675V13.5877H87.1044V11.4528Z" fill="black"/>
<path d="M37.2175 12.6621C36.5693 11.786 35.5351 11.2601 34.2906 11.2601C31.872 11.2601 29.6984 13.1704 29.6984 16.1848C29.6984 19.1993 31.9243 21.1101 34.2559 21.1101C35.4828 21.1101 36.5517 20.549 37.2175 19.6205V20.9174H39.6014V11.4557H37.2175V12.6621ZM34.7289 18.8314C33.274 18.8314 32.1 17.6574 32.1 16.1678C32.1 14.6782 33.274 13.5036 34.7289 13.5036C36.2185 13.5036 37.3579 14.6975 37.3579 16.1678C37.3579 17.638 36.2185 18.8314 34.7289 18.8314Z" fill="black"/>
<path d="M47.6696 11.4528L45.3386 17.5522L42.8847 11.4528H40.3081L44.1116 20.5143L44.1611 20.6326L42.6266 24.6476L42.6186 24.6681H45.1424L50.1934 11.4528H47.6696Z" fill="black"/>
<path d="M96.5128 17.8558C96.9358 18.6955 97.6909 19.1315 98.6898 19.1292C99.6717 19.1264 100.196 18.6523 100.195 18.0912C100.195 17.4089 99.1759 17.2525 97.9655 17.0109C96.3696 16.6823 94.5974 16.1962 94.5917 14.1978C94.5877 12.6058 96.1268 11.214 98.4578 11.2254C100.311 11.2203 101.471 11.865 102.333 12.9629L100.324 14.1301C99.9366 13.5001 99.3396 13.1334 98.4629 13.1357C97.5163 13.1385 97.0615 13.5252 97.0632 14.0511C97.0632 14.6469 97.8364 14.8027 99.2237 15.0972C100.802 15.4082 102.663 15.9466 102.668 17.9797C102.672 19.4523 101.36 21.1209 98.6085 21.1107C96.5333 21.1164 95.1614 20.4006 94.3671 19.1032L94.3637 19.0975L96.5128 17.8558Z" fill="black"/>
<path d="M15.2215 15.6026C15.0418 14.0644 14.3077 12.6443 13.1565 11.6083C12.0054 10.5722 10.5161 9.9912 8.96743 9.974H8.89693C8.64995 9.97411 8.40318 9.98834 8.15782 10.0167C7.2899 10.1166 6.45198 10.3947 5.69659 10.8337C5.6801 10.8433 5.66475 10.853 5.64826 10.8621L5.60619 10.8871C1.96522 13.0555 0.666656 18.0633 0.666656 21.1101L3.59865 19.4176C4.63227 21.3864 6.61479 22.6839 8.8253 22.7077H8.8958C9.14279 22.7074 9.38956 22.693 9.63491 22.6645C11.3122 22.4687 12.8429 21.6148 13.8906 20.2904C14.9382 18.9661 15.417 17.2799 15.2215 15.6026Z" fill="black"/>
</g>
</g>
<defs>
<clipPath id="clip0_630_2037">
<rect width="102" height="32" fill="white" transform="translate(0.666656)"/>
</clipPath>
</defs>
</svg>
